<mxfile modified="2024-05-23T02:54:56.067Z" host="app.diagrams.net" agent="Mozilla/5.0 (Windows NT 10.0; Win64; x64) AppleWebKit/537.36 (KHTML, like Gecko) Chrome/125.0.0.0 Safari/537.36" etag="9apGCpHMqrZUmr9PifWG" version="24.4.4" type="device">
  <diagram id="l2aKFoh6-Bn0gOPZ2l0T" name="Page-1">
    <mxGraphModel dx="1434" dy="754" grid="1" gridSize="10" guides="1" tooltips="1" connect="1" arrows="1" fold="1" page="1" pageScale="1" pageWidth="1169" pageHeight="827" math="0" shadow="0">
      <root>
        <mxCell id="0" />
        <mxCell id="1" parent="0" />
        <mxCell id="mpq5AgpwV83IM184FDqD-16" value="" style="shape=image;verticalLabelPosition=bottom;verticalAlign=top;imageAspect=0;image=https://jgraph.github.io/drawio-libs/libs/arista/DCS-7308.svg;html=1;verticalLabelPosition=bottom;labelBackgroundColor=#ffffff;verticalAlign=top;outlineConnect=0;container=1;collapsible=0;childLayout=rack;rackUnitSize=16.7;allowGaps=1;marginLeft=8;marginRight=8;marginTop=27;marginBottom=22;textColor=#666666;aspect=fixed;" parent="1" vertex="1">
          <mxGeometry x="328.3" y="300" width="240.56" height="290" as="geometry" />
        </mxCell>
        <mxCell id="u5-X4J6sDVxojNFm1EOe-15" value="" style="fontColor=#0066CC;verticalAlign=top;verticalLabelPosition=bottom;labelPosition=center;align=center;html=1;outlineConnect=0;fillColor=#CCCCCC;strokeColor=#6881B3;gradientColor=none;gradientDirection=north;strokeWidth=2;shape=mxgraph.networks.modem;" parent="mpq5AgpwV83IM184FDqD-16" vertex="1">
          <mxGeometry x="8" y="43.7" width="224.56" height="16.7" as="geometry" />
        </mxCell>
        <mxCell id="-Tqc0e3GXwy16LCfOSWi-22" value="" style="strokeColor=#dddddd;shadow=1;strokeWidth=1;rounded=1;absoluteArcSize=1;arcSize=2;" vertex="1" parent="mpq5AgpwV83IM184FDqD-16">
          <mxGeometry x="8" y="60.4" width="224.56" height="66.8" as="geometry" />
        </mxCell>
        <mxCell id="-Tqc0e3GXwy16LCfOSWi-23" value="&lt;div&gt;&lt;span style=&quot;background-color: initial;&quot;&gt;Cloud Firewall&amp;nbsp;&lt;/span&gt;&lt;br&gt;&lt;/div&gt;" style="editableCssRules=.*;html=1;fontColor=#999999;shape=image;verticalLabelPosition=middle;verticalAlign=middle;labelPosition=right;align=left;spacingLeft=20;part=1;points=[];imageAspect=0;image=data:image/svg+xml,PHN2ZyB4bWxucz0iaHR0cDovL3d3dy53My5vcmcvMjAwMC9zdmciIHhtbG5zOnY9Imh0dHBzOi8vdmVjdGEuaW8vbmFubyIgd2lkdGg9IjIwIiBoZWlnaHQ9IjIwIiBmaWxsPSIjNDI4NWY0IiB2aWV3Qm94PSIwIDAgMjAgMjAiPiYjeGE7CTxzdHlsZSB0eXBlPSJ0ZXh0L2NzcyI+JiN4YTsJLnN0MHtmaWxsOiM0Mjg1ZjQ7fSYjeGE7CTwvc3R5bGU+JiN4YTsJPHBhdGggY2xhc3M9InN0MCIgZD0iTTAgMGg4Ljg5djIuMjJIMHptMCAxNy43OGg4Ljg5VjIwSDB6bTAtOC44OWg4Ljg5djIuMjJIMHpNMTEuMTEgMEgyMHYyLjIyaC04Ljg5em0wIDE3Ljc4SDIwVjIwaC04Ljg5em0wLTguODlIMjB2Mi4yMmgtOC44OXpNNS41NSA0LjQ0aDguODl2Mi4yMkg1LjU1em0wIDguODloOC44OXYyLjIySDUuNTV6TTAgNC40NGgzLjMzdjIuMjJIMHptMCA4Ljg5aDMuMzN2Mi4yMkgwem0xNi42Ny04Ljg5SDIwdjIuMjJoLTMuMzN6bTAgOC44OUgyMHYyLjIyaC0zLjMzeiIvPiYjeGE7PC9zdmc+;" vertex="1" parent="-Tqc0e3GXwy16LCfOSWi-22">
          <mxGeometry width="30" height="30" relative="1" as="geometry">
            <mxPoint x="15" y="15" as="offset" />
          </mxGeometry>
        </mxCell>
        <mxCell id="-Tqc0e3GXwy16LCfOSWi-24" value="" style="strokeColor=#dddddd;shadow=1;strokeWidth=1;rounded=1;absoluteArcSize=1;arcSize=2;" vertex="1" parent="mpq5AgpwV83IM184FDqD-16">
          <mxGeometry x="8" y="127.19999999999999" width="224.56" height="66.8" as="geometry" />
        </mxCell>
        <mxCell id="-Tqc0e3GXwy16LCfOSWi-25" value="ROUTER" style="editableCssRules=.*;html=1;fontColor=#999999;shape=image;verticalLabelPosition=middle;verticalAlign=middle;labelPosition=right;align=left;spacingLeft=20;part=1;points=[];imageAspect=0;image=data:image/svg+xml,PHN2ZyB4bWxucz0iaHR0cDovL3d3dy53My5vcmcvMjAwMC9zdmciIHhtbG5zOnY9Imh0dHBzOi8vdmVjdGEuaW8vbmFubyIgd2lkdGg9IjIwIiBoZWlnaHQ9IjIwIiB2aWV3Qm94PSIwIDAgMjAgMjAiPiYjeGE7CTxzdHlsZSB0eXBlPSJ0ZXh0L2NzcyI+JiN4YTsJLnN0MHtmaWxsOiM0Mjg1ZjQ7fSYjeGE7CTwvc3R5bGU+JiN4YTsJPHBhdGggY2xhc3M9InN0MCIgZD0iTTE3IDEydjNsLTUtNSA1LTV2M2gzdjR6TTMgOEgwdjRoM3YzbDUtNS01LTV6bTkgN3YtM0g4djNINWw1IDUgNS01em0wLTEwdjNIOFY1SDVsNS01IDUgNXoiLz4mI3hhOzwvc3ZnPg==;" vertex="1" parent="-Tqc0e3GXwy16LCfOSWi-24">
          <mxGeometry width="30" height="30" relative="1" as="geometry">
            <mxPoint x="15" y="15" as="offset" />
          </mxGeometry>
        </mxCell>
        <mxCell id="u5-X4J6sDVxojNFm1EOe-19" value="" style="verticalLabelPosition=bottom;verticalAlign=top;html=1;shadow=0;dashed=0;strokeWidth=1;shape=mxgraph.android.switch_on;fillColor=#666666;sketch=0;" parent="mpq5AgpwV83IM184FDqD-16" vertex="1">
          <mxGeometry x="8" y="194" width="224.56" height="16.7" as="geometry" />
        </mxCell>
        <mxCell id="-Tqc0e3GXwy16LCfOSWi-5" value="" style="strokeColor=#666666;html=1;labelPosition=right;align=left;spacingLeft=15;shadow=0;dashed=0;outlineConnect=0;shape=mxgraph.rack.general.cat5e_rack_mount_patch_panel_24_ports;" vertex="1" parent="mpq5AgpwV83IM184FDqD-16">
          <mxGeometry x="8" y="244.1" width="224.56" height="16.7" as="geometry" />
        </mxCell>
        <mxCell id="mpq5AgpwV83IM184FDqD-40" value="PROTOTIPO CLINICA" style="text;html=1;resizable=1;points=[];autosize=0;align=left;verticalAlign=top;spacingTop=-4;fontSize=20;fontStyle=1" parent="1" vertex="1">
          <mxGeometry x="40" y="40" width="580" height="30" as="geometry" />
        </mxCell>
        <mxCell id="u5-X4J6sDVxojNFm1EOe-1" value="" style="verticalLabelPosition=bottom;sketch=0;aspect=fixed;html=1;verticalAlign=top;strokeColor=none;align=center;outlineConnect=0;shape=mxgraph.citrix.printer;" parent="1" vertex="1">
          <mxGeometry x="810" y="403" width="70" height="70" as="geometry" />
        </mxCell>
        <mxCell id="u5-X4J6sDVxojNFm1EOe-2" value="" style="image;sketch=0;aspect=fixed;html=1;points=[];align=center;fontSize=12;image=img/lib/mscae/Managed_Desktop.svg;" parent="1" vertex="1">
          <mxGeometry x="190" y="310" width="50" height="36" as="geometry" />
        </mxCell>
        <mxCell id="-Tqc0e3GXwy16LCfOSWi-32" style="edgeStyle=orthogonalEdgeStyle;rounded=0;orthogonalLoop=1;jettySize=auto;html=1;entryX=1;entryY=0.75;entryDx=0;entryDy=0;" edge="1" parent="1" source="u5-X4J6sDVxojNFm1EOe-4" target="mpq5AgpwV83IM184FDqD-16">
          <mxGeometry relative="1" as="geometry">
            <mxPoint x="700" y="560" as="targetPoint" />
          </mxGeometry>
        </mxCell>
        <mxCell id="u5-X4J6sDVxojNFm1EOe-4" value="" style="image;aspect=fixed;html=1;points=[];align=center;fontSize=12;image=img/lib/azure2/management_governance/Managed_Desktop.svg;" parent="1" vertex="1">
          <mxGeometry x="730" y="100" width="68" height="63.2" as="geometry" />
        </mxCell>
        <mxCell id="u5-X4J6sDVxojNFm1EOe-5" value="" style="image;aspect=fixed;html=1;points=[];align=center;fontSize=12;image=img/lib/azure2/management_governance/Managed_Desktop.svg;" parent="1" vertex="1">
          <mxGeometry x="840" y="100" width="68" height="63.2" as="geometry" />
        </mxCell>
        <mxCell id="-Tqc0e3GXwy16LCfOSWi-33" style="edgeStyle=orthogonalEdgeStyle;rounded=0;orthogonalLoop=1;jettySize=auto;html=1;entryX=1;entryY=1;entryDx=0;entryDy=0;" edge="1" parent="1" source="u5-X4J6sDVxojNFm1EOe-6" target="mpq5AgpwV83IM184FDqD-16">
          <mxGeometry relative="1" as="geometry" />
        </mxCell>
        <mxCell id="u5-X4J6sDVxojNFm1EOe-6" value="" style="image;aspect=fixed;html=1;points=[];align=center;fontSize=12;image=img/lib/azure2/management_governance/Managed_Desktop.svg;" parent="1" vertex="1">
          <mxGeometry x="760" y="330" width="68" height="63.2" as="geometry" />
        </mxCell>
        <mxCell id="u5-X4J6sDVxojNFm1EOe-7" value="" style="image;aspect=fixed;html=1;points=[];align=center;fontSize=12;image=img/lib/azure2/management_governance/Managed_Desktop.svg;" parent="1" vertex="1">
          <mxGeometry x="860" y="328.4" width="68" height="63.2" as="geometry" />
        </mxCell>
        <mxCell id="u5-X4J6sDVxojNFm1EOe-8" value="" style="image;sketch=0;aspect=fixed;html=1;points=[];align=center;fontSize=12;image=img/lib/mscae/Managed_Desktop.svg;" parent="1" vertex="1">
          <mxGeometry x="110" y="420" width="50" height="36" as="geometry" />
        </mxCell>
        <mxCell id="u5-X4J6sDVxojNFm1EOe-9" value="" style="image;sketch=0;aspect=fixed;html=1;points=[];align=center;fontSize=12;image=img/lib/mscae/Managed_Desktop.svg;" parent="1" vertex="1">
          <mxGeometry x="180" y="378" width="50" height="36" as="geometry" />
        </mxCell>
        <mxCell id="u5-X4J6sDVxojNFm1EOe-10" value="" style="image;sketch=0;aspect=fixed;html=1;points=[];align=center;fontSize=12;image=img/lib/mscae/Managed_Desktop.svg;" parent="1" vertex="1">
          <mxGeometry x="110" y="342" width="50" height="36" as="geometry" />
        </mxCell>
        <mxCell id="u5-X4J6sDVxojNFm1EOe-11" value="" style="image;sketch=0;aspect=fixed;html=1;points=[];align=center;fontSize=12;image=img/lib/mscae/Managed_Desktop.svg;" parent="1" vertex="1">
          <mxGeometry x="110" y="283.6" width="50" height="36" as="geometry" />
        </mxCell>
        <mxCell id="-Tqc0e3GXwy16LCfOSWi-35" style="edgeStyle=orthogonalEdgeStyle;rounded=0;orthogonalLoop=1;jettySize=auto;html=1;" edge="1" parent="1" source="u5-X4J6sDVxojNFm1EOe-12" target="mpq5AgpwV83IM184FDqD-16">
          <mxGeometry relative="1" as="geometry" />
        </mxCell>
        <mxCell id="u5-X4J6sDVxojNFm1EOe-12" value="" style="image;sketch=0;aspect=fixed;html=1;points=[];align=center;fontSize=12;image=img/lib/mscae/Managed_Desktop.svg;" parent="1" vertex="1">
          <mxGeometry x="423.58" y="650" width="50" height="36" as="geometry" />
        </mxCell>
        <mxCell id="-Tqc0e3GXwy16LCfOSWi-34" style="edgeStyle=orthogonalEdgeStyle;rounded=0;orthogonalLoop=1;jettySize=auto;html=1;entryX=0;entryY=0.75;entryDx=0;entryDy=0;" edge="1" parent="1" source="u5-X4J6sDVxojNFm1EOe-14" target="mpq5AgpwV83IM184FDqD-16">
          <mxGeometry relative="1" as="geometry" />
        </mxCell>
        <mxCell id="u5-X4J6sDVxojNFm1EOe-14" value="" style="image;sketch=0;aspect=fixed;html=1;points=[];align=center;fontSize=12;image=img/lib/mscae/Managed_Desktop.svg;" parent="1" vertex="1">
          <mxGeometry x="180" y="456" width="50" height="36" as="geometry" />
        </mxCell>
        <mxCell id="u5-X4J6sDVxojNFm1EOe-23" value="24 patch cords" style="text;html=1;align=center;verticalAlign=middle;resizable=0;points=[];autosize=1;strokeColor=none;fillColor=none;" parent="1" vertex="1">
          <mxGeometry x="40" y="69.99999999999997" width="100" height="30" as="geometry" />
        </mxCell>
        <mxCell id="u5-X4J6sDVxojNFm1EOe-24" value="12 connection (female&lt;span style=&quot;background-color: initial;&quot;&gt;)&lt;/span&gt;" style="text;html=1;align=center;verticalAlign=middle;resizable=0;points=[];autosize=1;strokeColor=none;fillColor=none;" parent="1" vertex="1">
          <mxGeometry x="30" y="99.99999999999997" width="150" height="30" as="geometry" />
        </mxCell>
        <mxCell id="u5-X4J6sDVxojNFm1EOe-25" value="1 box (cat 100m)" style="text;html=1;align=center;verticalAlign=middle;resizable=0;points=[];autosize=1;strokeColor=none;fillColor=none;" parent="1" vertex="1">
          <mxGeometry x="40" y="129.99999999999997" width="110" height="30" as="geometry" />
        </mxCell>
        <mxCell id="-Tqc0e3GXwy16LCfOSWi-6" value="" style="verticalLabelPosition=bottom;sketch=0;aspect=fixed;html=1;verticalAlign=top;strokeColor=none;align=center;outlineConnect=0;shape=mxgraph.citrix.printer;" vertex="1" parent="1">
          <mxGeometry x="790" y="160" width="70" height="70" as="geometry" />
        </mxCell>
        <mxCell id="-Tqc0e3GXwy16LCfOSWi-7" value="COMPUTER CLINIC ROOMS" style="text;html=1;align=center;verticalAlign=middle;resizable=0;points=[];autosize=1;strokeColor=none;fillColor=none;" vertex="1" parent="1">
          <mxGeometry x="55" y="500" width="180" height="30" as="geometry" />
        </mxCell>
        <mxCell id="-Tqc0e3GXwy16LCfOSWi-8" value="COMPUTER X RAY ROOM" style="text;html=1;align=center;verticalAlign=middle;resizable=0;points=[];autosize=1;strokeColor=none;fillColor=none;" vertex="1" parent="1">
          <mxGeometry x="363.58" y="690" width="170" height="30" as="geometry" />
        </mxCell>
        <mxCell id="-Tqc0e3GXwy16LCfOSWi-10" value="COMPUTER AND PRINTER RECEPTION ROOM" style="text;html=1;align=center;verticalAlign=middle;resizable=0;points=[];autosize=1;strokeColor=none;fillColor=none;" vertex="1" parent="1">
          <mxGeometry x="680" y="60" width="290" height="30" as="geometry" />
        </mxCell>
        <mxCell id="-Tqc0e3GXwy16LCfOSWi-11" value="COMPUTER ADMINISTRATION ROOM" style="text;html=1;align=center;verticalAlign=middle;resizable=0;points=[];autosize=1;strokeColor=none;fillColor=none;" vertex="1" parent="1">
          <mxGeometry x="725" y="480" width="240" height="30" as="geometry" />
        </mxCell>
      </root>
    </mxGraphModel>
  </diagram>
</mxfile>
